<svg width="134" height="35" viewBox="0 0 134 35" fill="none" xmlns="http://www.w3.org/2000/svg">
<g clip-path="url(#clip0_147_357)">
<path d="M34.9772 16.7208C34.9886 16.9777 34.9943 17.2288 35 17.4857V17.4971C35 25.5921 29.5025 32.4025 22.0356 34.4063C20.8082 34.7317 19.5523 34.9258 18.2849 34.9829C17.9025 35 17.5257 35.0057 17.1489 35C8.29473 34.823 1.0504 28.0696 0.102758 19.421C0.0627975 19.0442 0.0342541 18.6731 0.017128 18.2964C0.0057106 18.0452 1.90603e-06 17.7883 -0.00570679 17.5371V17.5029C1.90603e-06 7.83804 7.83233 0 17.4971 0C25.7405 0 32.648 5.69728 34.5091 13.3698C34.7717 14.4715 34.9315 15.5904 34.9772 16.7208ZM26.7395 8.71717C25.7177 8.43174 24.9584 8.19198 24.7358 7.71815C24.633 7.49551 24.6958 7.27288 24.8385 7.16441C24.9984 7.05024 25.2096 7.0902 25.4551 7.21008C25.8204 7.38705 26.2714 7.64965 26.6139 7.69532C27.6187 7.8152 27.436 6.27956 25.632 5.38901C24.5702 4.86381 23.5312 4.64688 22.1269 4.69825C21.6074 4.72109 21.1165 4.69825 20.6826 4.62975C20.0261 4.52699 19.2212 4.24727 18.6788 4.1388C18.2621 4.05317 18.0281 4.06459 17.931 4.2016C17.8397 4.3329 17.8682 4.52699 18.1194 4.84668C18.6275 5.48605 19.4267 6.19964 19.0157 7.86087C18.0052 11.9883 19.3924 13.8778 20.8025 14.1861C21.596 14.3631 22.321 14.1747 22.7663 13.7123C23.1887 13.267 23.3714 12.5192 22.9661 11.8855C22.3438 10.915 22.1212 10.0701 22.6806 9.72191C23.1887 9.40222 23.9137 9.69907 24.4618 10.9264C25.3409 12.8959 26.4883 13.4211 27.6301 12.0168C28.5663 10.8694 28.5321 9.20241 26.7338 8.71147L26.7395 8.71717ZM23.5484 19.4895C18.8044 16.6465 16.4467 15.5219 14.5286 14.1519C11.3432 11.8798 10.8408 10.19 10.7438 9.01403C10.5725 6.90752 12.1652 5.01223 13.7865 4.12168C13.9121 4.04746 14.129 3.87049 14.032 3.63073C13.9406 3.39096 13.6495 3.43663 13.541 3.45947C9.91029 4.23014 6.38803 7.4213 6.93606 11.6914C7.15299 13.3812 8.23194 16.2355 13.7922 19.5123C15.6875 20.6312 17.3259 21.4761 19.9005 22.9489C23.3828 24.9413 24.987 27.5045 22.8291 30.3017C22.6635 30.4958 22.5265 30.7014 22.5836 30.8783C22.6521 31.0838 22.9204 31.1181 23.1716 31.0039C24.8271 30.2389 26.1972 29.0972 26.848 28.0354C27.9954 26.1687 28.5663 22.5037 23.5541 19.4952L23.5484 19.4895ZM17.9995 30.8441C17.5771 30.7242 16.9377 30.5244 16.4068 30.2903C15.7332 29.9992 15.128 29.6738 14.8597 29.4112C14.6828 29.2342 14.6599 29.0344 14.7969 28.8346C15.5962 27.6815 15.8245 27.2248 16.0471 26.6824C16.521 25.535 16.0528 25.4208 15.3164 25.6377C14.5115 25.8661 13.8778 26.1001 13.3869 26.2885C12.6961 26.5454 12.268 26.7053 12.0168 26.5797C11.7542 26.4541 11.7085 25.9974 11.6115 25.2438C11.543 24.7072 11.4345 24.0964 11.2861 23.497C10.9892 22.2982 10.4755 22.5322 10.053 23.0175C9.52781 23.6568 9.23667 24.4503 9.01403 24.8671C8.89985 25.0897 8.76285 25.1639 8.59729 25.1297C8.23194 25.0497 7.75241 24.4846 7.2215 23.8167C6.45083 22.8348 6.1083 22.0812 5.7087 22.0298C4.8581 21.9328 5.23487 23.9423 6.03409 25.5978C6.81047 27.219 8.02072 28.8175 10.0416 30.0962C12.3479 31.5577 15.756 32.0886 17.8511 31.7917C18.5133 31.7004 18.6446 31.0382 17.9824 30.8441H17.9995Z" fill="#0046FF"/>
<path d="M41.428 18.9528C41.6735 18.93 41.9703 18.8501 42.3243 18.713C42.6725 18.576 43.0435 18.3991 43.4374 18.1878C43.8256 17.9766 44.2024 17.7483 44.5735 17.5085C45.8636 16.6465 46.9426 15.5961 47.8217 14.3573C48.1871 14.8654 48.6381 15.3506 49.1747 15.8016C49.7056 16.2526 50.265 16.6636 50.853 17.0347C51.892 17.6684 52.6969 18.0508 53.2792 18.1764C53.8615 18.302 54.2326 18.2221 54.3867 17.9367L55.4143 16.0071C54.7121 15.7674 54.0157 15.4762 53.3192 15.1223C52.6284 14.774 52.0062 14.3573 51.4582 13.8835C50.9101 13.404 50.4591 12.8502 50.1109 12.2223C49.757 11.5943 49.5857 10.8921 49.5857 10.11V6.93601H45.4583C45.2814 6.93601 45.1615 7.01023 45.0987 7.15294C45.0359 7.29566 45.0758 7.4555 45.2186 7.62677C45.4412 7.88366 45.5839 8.13484 45.6353 8.38031C45.6924 8.62579 45.7209 8.95118 45.7209 9.34508V10.3441C45.7209 11.1091 45.5668 11.8112 45.2585 12.4506C44.9503 13.0843 44.5221 13.6666 43.9798 14.1918C43.4374 14.717 42.8152 15.1908 42.1073 15.6132C41.3994 16.0357 40.6459 16.401 39.8524 16.7036L40.9485 18.7816C41.0284 18.9243 41.1882 18.9871 41.4394 18.9585M47.9074 25.6377C47.6676 25.455 47.5477 25.0839 47.5477 24.5245V20.1802H43.4888C43.3119 20.1802 43.192 20.2487 43.1292 20.3971C43.0664 20.5398 43.1063 20.6997 43.2491 20.8709C43.4717 21.145 43.6087 21.3961 43.6658 21.6245C43.7229 21.8585 43.7514 22.1782 43.7514 22.595V24.8899C43.7514 25.6206 43.8485 26.2257 44.0369 26.6995C44.231 27.179 44.5221 27.5615 44.9217 27.847C45.3213 28.1324 45.8123 28.3322 46.4003 28.4464C46.9883 28.5548 47.679 28.6119 48.4725 28.6119H61.3685V25.9117H49.0719C48.5296 25.9117 48.1414 25.8204 47.9016 25.6377M61.0202 21.4018V6.54782H56.9385C56.7615 6.54782 56.6417 6.61633 56.5674 6.75334C56.4932 6.89034 56.5332 7.04448 56.6759 7.22145C56.8985 7.47834 57.0527 7.72952 57.144 7.9807C57.2296 8.2376 57.2753 8.5687 57.2753 8.98543V21.4018H61.0259H61.0202ZM67.3911 26.6995C67.5795 27.179 67.8764 27.5615 68.2703 27.847C68.6699 28.1324 69.1665 28.3322 69.7488 28.4464C70.3368 28.5605 71.0333 28.6176 71.8268 28.6176H84.5343V25.9174H72.4719C71.9124 25.9174 71.5128 25.8204 71.2673 25.632C71.0219 25.4436 70.8963 25.0554 70.8963 24.4845V21.1392H66.8374C66.6604 21.1392 66.5405 21.2135 66.4777 21.3562C66.4149 21.4989 66.4549 21.653 66.5976 21.83C66.7746 22.0355 66.9002 22.2353 66.9801 22.4294C67.06 22.6178 67.1 22.8347 67.1 23.0745V24.867C67.1 25.6149 67.1913 26.2257 67.3854 26.7052M69.138 12.1024C69.5833 11.5543 70.2283 11.2746 71.0732 11.2746C71.9181 11.2746 72.5404 11.5486 72.9914 12.1024C73.448 12.6504 73.6764 13.3298 73.6764 14.1461C73.6764 14.9111 73.448 15.5676 72.9914 16.1156C72.5347 16.6693 71.8953 16.9376 71.0732 16.9376C70.2512 16.9376 69.5833 16.6636 69.138 16.1156C68.6927 15.5676 68.4701 14.9111 68.4701 14.1461C68.4701 13.3355 68.6927 12.6561 69.138 12.1024ZM65.1876 12.5648C64.9878 13.0729 64.8907 13.638 64.8907 14.2603C64.8907 15.0081 65.0277 15.7046 65.3132 16.3496C65.5929 16.9947 65.9925 17.5599 66.512 18.0337C67.0372 18.5075 67.6823 18.8843 68.4472 19.1583C69.2122 19.4266 70.0856 19.5636 71.0732 19.5636C72.0608 19.5636 72.94 19.4266 73.7106 19.1583C74.4813 18.89 75.1321 18.5132 75.6573 18.0337C76.1825 17.5542 76.5821 16.9947 76.8504 16.3496C77.1187 15.7046 77.2557 15.0081 77.2557 14.2603C77.2557 13.6551 77.1473 13.0957 76.9361 12.5762C76.7248 12.0624 76.428 11.5943 76.0626 11.1776H78.5745V8.55157H73.1512V5.87991H69.0695C68.8925 5.87991 68.7726 5.94841 68.6984 6.07971C68.6299 6.21672 68.6699 6.37085 68.8297 6.54782C69.0524 6.81613 69.1951 7.07873 69.2522 7.3242C69.3092 7.56968 69.3378 7.90078 69.3378 8.31181V8.55157H63.5378V11.1776H66.0439C65.6785 11.5943 65.3931 12.051 65.199 12.5591M84.2489 6.54782H80.1672C79.9902 6.54782 79.8703 6.61633 79.7961 6.75334C79.7219 6.89034 79.7676 7.04448 79.9331 7.22145C80.1558 7.48976 80.3042 7.75236 80.3841 7.99783C80.4583 8.2433 80.504 8.57441 80.504 8.99114V21.7387H84.2489V14.7683H86.9662V12.0681H84.2489V6.55353V6.54782ZM102.899 13.0215C102.134 13.4382 100.844 13.6437 99.0344 13.6437C97.2248 13.6437 95.9289 13.4382 95.1639 13.0215C94.399 12.6047 94.0165 12.0282 94.0165 11.2803C94.0165 10.5325 94.399 9.96162 95.1639 9.52776C95.9289 9.08819 97.219 8.87126 99.0344 8.87126C100.85 8.87126 102.134 9.08819 102.899 9.52776C103.664 9.96733 104.041 10.5496 104.041 11.2803C104.041 12.011 103.658 12.6105 102.899 13.0215ZM105.656 7.68385C104.931 7.24428 104.018 6.90747 102.922 6.66771C101.826 6.42794 100.524 6.31377 99.0287 6.31377C97.533 6.31377 96.2371 6.43365 95.1354 6.66771C94.0393 6.90747 93.1316 7.24428 92.4123 7.68385C91.6987 8.12342 91.1621 8.64862 90.8139 9.25945C90.4657 9.87599 90.2944 10.5439 90.2944 11.2803C90.2944 12.0168 90.4657 12.6561 90.8139 13.2612C91.1621 13.8664 91.6987 14.3859 92.4123 14.8254C93.1316 15.265 94.0393 15.6075 95.1354 15.853C96.2371 16.0985 97.533 16.2241 99.0287 16.2241C100.524 16.2241 101.82 16.1042 102.922 15.853C104.018 15.6075 104.926 15.265 105.656 14.8254C106.382 14.3859 106.924 13.8664 107.266 13.2612C107.615 12.6561 107.792 11.9939 107.792 11.2803C107.792 10.5667 107.615 9.87599 107.266 9.25945C106.918 8.64862 106.376 8.12342 105.656 7.68385ZM108.106 25.9174H95.4037C95.0041 25.9174 94.7243 25.8603 94.5588 25.7519C94.3932 25.6434 94.3076 25.3694 94.3076 24.9412V21.4076H90.2487C90.0718 21.4076 89.9519 21.4761 89.8891 21.6245C89.8263 21.7672 89.8662 21.927 90.009 22.0983C90.1859 22.3038 90.3115 22.5036 90.3914 22.6977C90.4714 22.8861 90.5113 23.103 90.5113 23.3428V25.5863C90.5113 26.1914 90.5913 26.6881 90.7625 27.0763C90.9338 27.4645 91.185 27.7785 91.5275 28.0068C91.87 28.2351 92.3096 28.395 92.8405 28.4863C93.3714 28.572 93.9993 28.6176 94.7129 28.6176H108.111V25.9231L108.106 25.9174ZM110.395 17.3658H87.6399V19.969H110.395V17.3658ZM115.886 12.6961C115.966 12.3821 116.098 12.1081 116.28 11.8569C116.463 11.6114 116.697 11.4116 116.971 11.2746C117.251 11.1319 117.576 11.0634 117.964 11.0634C118.353 11.0634 118.678 11.1319 118.958 11.2746C119.232 11.4173 119.466 11.6114 119.649 11.8569C119.831 12.1081 119.968 12.3935 120.042 12.6961C120.122 13.0101 120.162 13.3355 120.162 13.6609C120.162 13.9805 120.122 14.2888 120.042 14.5914C119.968 14.8882 119.837 15.1622 119.649 15.402C119.466 15.6418 119.232 15.8359 118.958 15.9786C118.678 16.1213 118.347 16.1955 117.964 16.1955C117.582 16.1955 117.251 16.1213 116.971 15.9786C116.691 15.8359 116.463 15.6418 116.28 15.402C116.098 15.1622 115.966 14.8939 115.886 14.5914C115.807 14.2888 115.767 13.9748 115.767 13.6609C115.767 13.324 115.807 13.0044 115.886 12.6961ZM112.627 12.2108C112.478 12.6561 112.398 13.1299 112.398 13.6437C112.398 14.4087 112.524 15.1052 112.77 15.7445C113.015 16.3839 113.375 16.9262 113.848 17.3715C114.317 17.8168 114.899 18.165 115.59 18.4105C116.28 18.656 117.074 18.7816 117.964 18.7816C118.855 18.7816 119.649 18.656 120.339 18.4105C121.03 18.165 121.618 17.8168 122.086 17.3715C122.554 16.9262 122.914 16.3839 123.159 15.7445C123.405 15.1109 123.53 14.4087 123.53 13.6437C123.53 13.1357 123.45 12.6561 123.291 12.2108C123.131 11.7656 122.914 11.3603 122.646 10.9949H124.244V8.3689H119.991V5.8114H116.052C115.881 5.8114 115.749 5.88561 115.67 6.02833C115.59 6.17676 115.624 6.34231 115.789 6.5307C116.012 6.78759 116.149 7.03306 116.195 7.28424C116.24 7.52972 116.263 7.86653 116.263 8.30039V8.3689H111.371V10.9949H113.255C112.986 11.3603 112.775 11.7656 112.621 12.2108M124.889 6.69625C124.729 6.69625 124.621 6.75334 124.558 6.87322C124.495 6.9931 124.529 7.15865 124.678 7.36417C124.821 7.56968 124.935 7.76948 125.026 7.96929C125.112 8.16909 125.157 8.48307 125.157 8.91122V18.342H128.571V13.9006H130.17V18.9871H133.583V6.54782H130.17V11.0862H128.571V6.69625H124.895H124.889ZM120.391 23.417C120.556 23.1259 120.83 22.8804 121.213 22.6863C121.595 22.4979 122.092 22.3495 122.708 22.241C123.319 22.1383 124.073 22.0869 124.969 22.0869C125.865 22.0869 126.607 22.1326 127.224 22.241C127.835 22.3495 128.326 22.4922 128.702 22.6863C129.079 22.8747 129.348 23.1202 129.513 23.417C129.684 23.7139 129.77 24.0507 129.77 24.4332C129.77 24.8156 129.684 25.1296 129.513 25.4265C129.348 25.7233 129.079 25.9688 128.702 26.1629C128.326 26.3627 127.829 26.5168 127.224 26.6196C126.607 26.7223 125.854 26.7737 124.969 26.7737C124.084 26.7737 123.325 26.7223 122.708 26.6196C122.092 26.5168 121.595 26.3627 121.213 26.1629C120.83 25.9631 120.556 25.7176 120.391 25.4265C120.225 25.1296 120.139 24.7985 120.139 24.4332C120.139 24.0678 120.225 23.7139 120.391 23.417ZM116.343 24.4332C116.343 25.181 116.526 25.866 116.891 26.4883C117.257 27.1048 117.805 27.6414 118.535 28.0753C119.272 28.5149 120.168 28.8517 121.23 29.0915C122.297 29.3312 123.542 29.4511 124.958 29.4511C126.373 29.4511 127.566 29.3312 128.645 29.0915C129.724 28.8517 130.621 28.5149 131.346 28.0753C132.071 27.6414 132.624 27.1048 133.001 26.4883C133.384 25.866 133.578 25.1867 133.578 24.4332C133.578 22.8918 132.836 21.6702 131.357 20.7682C129.878 19.8719 127.743 19.4209 124.963 19.4209C122.183 19.4209 119.962 19.8719 118.512 20.7682C117.068 21.6702 116.343 22.8918 116.343 24.4332Z" fill="#0046FF"/>
</g>
<defs>
<clipPath id="clip0_147_357">
<rect width="133.583" height="35" fill="white"/>
</clipPath>
</defs>
</svg>
